<mxfile host="app.diagrams.net" modified="2023-10-17T18:27:32.843Z" agent="Mozilla/5.0 (Windows NT 10.0; Win64; x64) AppleWebKit/537.36 (KHTML, like Gecko) Chrome/118.0.0.0 Safari/537.36" etag="bD0Z_IXjcEy6sR6WiU75" version="22.0.4" type="device">
  <diagram name="Page-1" id="edf60f1a-56cd-e834-aa8a-f176f3a09ee4">
    <mxGraphModel dx="1050" dy="566" grid="1" gridSize="10" guides="1" tooltips="1" connect="1" arrows="1" fold="1" page="1" pageScale="1" pageWidth="1100" pageHeight="850" background="none" math="0" shadow="0">
      <root>
        <mxCell id="0" />
        <mxCell id="1" parent="0" />
        <mxCell id="sItNBycwCMG-vpb3Py5h-16" style="edgeStyle=orthogonalEdgeStyle;rounded=0;orthogonalLoop=1;jettySize=auto;html=1;" edge="1" parent="1" source="sItNBycwCMG-vpb3Py5h-3" target="sItNBycwCMG-vpb3Py5h-17">
          <mxGeometry relative="1" as="geometry">
            <mxPoint x="540" y="170" as="targetPoint" />
          </mxGeometry>
        </mxCell>
        <mxCell id="sItNBycwCMG-vpb3Py5h-3" value="START" style="ellipse;whiteSpace=wrap;html=1;" vertex="1" parent="1">
          <mxGeometry x="480" y="20" width="120" height="80" as="geometry" />
        </mxCell>
        <mxCell id="sItNBycwCMG-vpb3Py5h-12" value="Тарихи&lt;br&gt;Детектив" style="edgeStyle=orthogonalEdgeStyle;rounded=0;orthogonalLoop=1;jettySize=auto;html=1;entryX=1;entryY=0.5;entryDx=0;entryDy=0;" edge="1" parent="1" source="sItNBycwCMG-vpb3Py5h-5" target="sItNBycwCMG-vpb3Py5h-10">
          <mxGeometry relative="1" as="geometry" />
        </mxCell>
        <mxCell id="sItNBycwCMG-vpb3Py5h-13" style="edgeStyle=orthogonalEdgeStyle;rounded=0;orthogonalLoop=1;jettySize=auto;html=1;entryX=0;entryY=0.5;entryDx=0;entryDy=0;" edge="1" parent="1" source="sItNBycwCMG-vpb3Py5h-5" target="sItNBycwCMG-vpb3Py5h-11">
          <mxGeometry relative="1" as="geometry" />
        </mxCell>
        <mxCell id="sItNBycwCMG-vpb3Py5h-15" value="Хорор детектив" style="edgeLabel;html=1;align=center;verticalAlign=middle;resizable=0;points=[];" vertex="1" connectable="0" parent="sItNBycwCMG-vpb3Py5h-13">
          <mxGeometry x="-0.2326" y="2" relative="1" as="geometry">
            <mxPoint y="42" as="offset" />
          </mxGeometry>
        </mxCell>
        <mxCell id="sItNBycwCMG-vpb3Py5h-5" value="Анықталған пайдаланушыға &lt;br&gt;ұсынатын жанр" style="rhombus;whiteSpace=wrap;html=1;" vertex="1" parent="1">
          <mxGeometry x="397.5" y="470" width="285" height="150" as="geometry" />
        </mxCell>
        <mxCell id="sItNBycwCMG-vpb3Py5h-22" style="edgeStyle=orthogonalEdgeStyle;rounded=0;orthogonalLoop=1;jettySize=auto;html=1;" edge="1" parent="1" source="sItNBycwCMG-vpb3Py5h-10" target="sItNBycwCMG-vpb3Py5h-20">
          <mxGeometry relative="1" as="geometry" />
        </mxCell>
        <mxCell id="sItNBycwCMG-vpb3Py5h-10" value="Оқиға 1.1. Серіктеспен танысу." style="rounded=0;whiteSpace=wrap;html=1;" vertex="1" parent="1">
          <mxGeometry x="120" y="760" width="120" height="60" as="geometry" />
        </mxCell>
        <mxCell id="sItNBycwCMG-vpb3Py5h-23" style="edgeStyle=orthogonalEdgeStyle;rounded=0;orthogonalLoop=1;jettySize=auto;html=1;" edge="1" parent="1" source="sItNBycwCMG-vpb3Py5h-11" target="sItNBycwCMG-vpb3Py5h-21">
          <mxGeometry relative="1" as="geometry" />
        </mxCell>
        <mxCell id="sItNBycwCMG-vpb3Py5h-11" value="Оқиға 2.1. Серіктеспен танысу." style="rounded=0;whiteSpace=wrap;html=1;" vertex="1" parent="1">
          <mxGeometry x="830" y="750" width="120" height="60" as="geometry" />
        </mxCell>
        <mxCell id="sItNBycwCMG-vpb3Py5h-19" style="edgeStyle=orthogonalEdgeStyle;rounded=0;orthogonalLoop=1;jettySize=auto;html=1;" edge="1" parent="1" source="sItNBycwCMG-vpb3Py5h-17">
          <mxGeometry relative="1" as="geometry">
            <mxPoint x="540" y="350" as="targetPoint" />
          </mxGeometry>
        </mxCell>
        <mxCell id="sItNBycwCMG-vpb3Py5h-17" value="Оқиға 1. Жанр анықтау." style="rounded=0;whiteSpace=wrap;html=1;" vertex="1" parent="1">
          <mxGeometry x="395" y="150" width="290" height="150" as="geometry" />
        </mxCell>
        <mxCell id="sItNBycwCMG-vpb3Py5h-20" value="Пайдаланушымен сөйлесу барысында&amp;nbsp;" style="rounded=1;whiteSpace=wrap;html=1;" vertex="1" parent="1">
          <mxGeometry x="120" y="930" width="120" height="60" as="geometry" />
        </mxCell>
        <mxCell id="sItNBycwCMG-vpb3Py5h-21" value="" style="rounded=1;whiteSpace=wrap;html=1;" vertex="1" parent="1">
          <mxGeometry x="830" y="930" width="120" height="60" as="geometry" />
        </mxCell>
        <mxCell id="sItNBycwCMG-vpb3Py5h-25" style="edgeStyle=orthogonalEdgeStyle;rounded=0;orthogonalLoop=1;jettySize=auto;html=1;" edge="1" parent="1" source="sItNBycwCMG-vpb3Py5h-24" target="sItNBycwCMG-vpb3Py5h-5">
          <mxGeometry relative="1" as="geometry" />
        </mxCell>
        <mxCell id="sItNBycwCMG-vpb3Py5h-24" value="Пайдаланушы 1-оқиғала шешім қабылдайды." style="rounded=1;whiteSpace=wrap;html=1;" vertex="1" parent="1">
          <mxGeometry x="470" y="345" width="140" height="80" as="geometry" />
        </mxCell>
      </root>
    </mxGraphModel>
  </diagram>
</mxfile>
